<mxfile host="app.diagrams.net" modified="2023-12-21T13:24:48.764Z" agent="Mozilla/5.0 (Windows NT 10.0; Win64; x64) AppleWebKit/537.36 (KHTML, like Gecko) Chrome/120.0.0.0 Safari/537.36" etag="k1PCBcWDIwH8DoZnT2zd" version="22.1.11" type="device">
  <diagram name="Страница — 1" id="mX2du_6H_Gq2id38HaJK">
    <mxGraphModel dx="794" dy="492" grid="1" gridSize="10" guides="1" tooltips="1" connect="1" arrows="1" fold="1" page="1" pageScale="1" pageWidth="827" pageHeight="1169" math="0" shadow="0">
      <root>
        <mxCell id="0" />
        <mxCell id="1" parent="0" />
        <mxCell id="tsa9X_baN0Ejox3Y71PL-1" style="edgeStyle=orthogonalEdgeStyle;rounded=0;orthogonalLoop=1;jettySize=auto;html=1;exitX=0.5;exitY=1;exitDx=0;exitDy=0;entryX=0.5;entryY=0;entryDx=0;entryDy=0;" parent="1" source="tsa9X_baN0Ejox3Y71PL-2" target="tsa9X_baN0Ejox3Y71PL-4" edge="1">
          <mxGeometry relative="1" as="geometry" />
        </mxCell>
        <mxCell id="tsa9X_baN0Ejox3Y71PL-2" value="начало&lt;br&gt;aannaia" style="rounded=1;whiteSpace=wrap;html=1;arcSize=50;" parent="1" vertex="1">
          <mxGeometry x="20" y="20" width="100" height="50" as="geometry" />
        </mxCell>
        <mxCell id="tsa9X_baN0Ejox3Y71PL-3" style="edgeStyle=orthogonalEdgeStyle;rounded=0;orthogonalLoop=1;jettySize=auto;html=1;exitX=0.5;exitY=1;exitDx=0;exitDy=0;entryX=0.5;entryY=0;entryDx=0;entryDy=0;" parent="1" source="tsa9X_baN0Ejox3Y71PL-4" target="tsa9X_baN0Ejox3Y71PL-6" edge="1">
          <mxGeometry relative="1" as="geometry" />
        </mxCell>
        <mxCell id="tsa9X_baN0Ejox3Y71PL-4" value="&lt;div&gt;d=0,000001&lt;/div&gt;&lt;div&gt;&lt;span style=&quot;background-color: initial;&quot;&gt;x=0&lt;/span&gt;&lt;/div&gt;" style="rounded=0;whiteSpace=wrap;html=1;" parent="1" vertex="1">
          <mxGeometry x="20" y="90" width="100" height="50" as="geometry" />
        </mxCell>
        <mxCell id="dIiQ5qKZ_fk2aZzQTIAT-3" value="" style="edgeStyle=orthogonalEdgeStyle;rounded=0;orthogonalLoop=1;jettySize=auto;html=1;" parent="1" source="tsa9X_baN0Ejox3Y71PL-6" target="dIiQ5qKZ_fk2aZzQTIAT-1" edge="1">
          <mxGeometry relative="1" as="geometry" />
        </mxCell>
        <mxCell id="tsa9X_baN0Ejox3Y71PL-6" value="knopka=true" style="rounded=0;whiteSpace=wrap;html=1;" parent="1" vertex="1">
          <mxGeometry x="20" y="180" width="100" height="50" as="geometry" />
        </mxCell>
        <mxCell id="tsa9X_baN0Ejox3Y71PL-7" value="" style="edgeStyle=orthogonalEdgeStyle;rounded=0;orthogonalLoop=1;jettySize=auto;html=1;entryX=0.5;entryY=0;entryDx=0;entryDy=0;" parent="1" source="tsa9X_baN0Ejox3Y71PL-9" target="tsa9X_baN0Ejox3Y71PL-19" edge="1">
          <mxGeometry relative="1" as="geometry">
            <mxPoint x="70" y="408" as="targetPoint" />
          </mxGeometry>
        </mxCell>
        <mxCell id="tsa9X_baN0Ejox3Y71PL-8" style="edgeStyle=orthogonalEdgeStyle;rounded=0;orthogonalLoop=1;jettySize=auto;html=1;exitX=1;exitY=0.5;exitDx=0;exitDy=0;entryX=0.5;entryY=0;entryDx=0;entryDy=0;" parent="1" source="tsa9X_baN0Ejox3Y71PL-9" target="tsa9X_baN0Ejox3Y71PL-13" edge="1">
          <mxGeometry relative="1" as="geometry" />
        </mxCell>
        <mxCell id="tsa9X_baN0Ejox3Y71PL-9" value="0&amp;lt;=f(x)" style="rhombus;whiteSpace=wrap;html=1;" parent="1" vertex="1">
          <mxGeometry x="20" y="318" width="100" height="60" as="geometry" />
        </mxCell>
        <mxCell id="tsa9X_baN0Ejox3Y71PL-10" value="да" style="text;html=1;strokeColor=none;fillColor=none;align=center;verticalAlign=middle;whiteSpace=wrap;rounded=0;" parent="1" vertex="1">
          <mxGeometry x="90" y="318" width="60" height="30" as="geometry" />
        </mxCell>
        <mxCell id="tsa9X_baN0Ejox3Y71PL-11" value="нет" style="text;html=1;strokeColor=none;fillColor=none;align=center;verticalAlign=middle;whiteSpace=wrap;rounded=0;" parent="1" vertex="1">
          <mxGeometry x="60" y="368" width="60" height="30" as="geometry" />
        </mxCell>
        <mxCell id="tsa9X_baN0Ejox3Y71PL-12" style="edgeStyle=orthogonalEdgeStyle;rounded=0;orthogonalLoop=1;jettySize=auto;html=1;exitX=0.5;exitY=1;exitDx=0;exitDy=0;" parent="1" source="tsa9X_baN0Ejox3Y71PL-13" edge="1">
          <mxGeometry relative="1" as="geometry">
            <mxPoint x="70" y="478" as="targetPoint" />
            <Array as="points">
              <mxPoint x="165" y="478" />
            </Array>
          </mxGeometry>
        </mxCell>
        <mxCell id="tsa9X_baN0Ejox3Y71PL-13" value="&lt;div&gt;&amp;nbsp;knopka=false&lt;/div&gt;&lt;div&gt;&lt;span style=&quot;background-color: initial;&quot;&gt;x=x-d&lt;/span&gt;&lt;/div&gt;&lt;div&gt;&lt;span style=&quot;background-color: initial;&quot;&gt;x=(round(x*1000000))&lt;/span&gt;&lt;/div&gt;&lt;div&gt;&lt;span style=&quot;background-color: initial;&quot;&gt;/1000000&lt;/span&gt;&lt;/div&gt;" style="rounded=0;whiteSpace=wrap;html=1;" parent="1" vertex="1">
          <mxGeometry x="110" y="388" width="110" height="70" as="geometry" />
        </mxCell>
        <mxCell id="tsa9X_baN0Ejox3Y71PL-14" value="" style="endArrow=none;dashed=1;html=1;rounded=0;exitX=1;exitY=0.5;exitDx=0;exitDy=0;entryX=0;entryY=0.5;entryDx=0;entryDy=0;entryPerimeter=0;" parent="1" source="tsa9X_baN0Ejox3Y71PL-13" target="tsa9X_baN0Ejox3Y71PL-15" edge="1">
          <mxGeometry width="50" height="50" relative="1" as="geometry">
            <mxPoint x="290" y="448" as="sourcePoint" />
            <mxPoint x="280" y="423" as="targetPoint" />
          </mxGeometry>
        </mxCell>
        <mxCell id="tsa9X_baN0Ejox3Y71PL-15" value="" style="strokeWidth=2;html=1;shape=mxgraph.flowchart.annotation_1;align=left;pointerEvents=1;" parent="1" vertex="1">
          <mxGeometry x="260" y="403" width="10" height="40" as="geometry" />
        </mxCell>
        <mxCell id="tsa9X_baN0Ejox3Y71PL-16" value="round - округление до запятой&amp;nbsp;" style="text;html=1;strokeColor=none;fillColor=none;align=center;verticalAlign=middle;whiteSpace=wrap;rounded=0;" parent="1" vertex="1">
          <mxGeometry x="260" y="406" width="110" height="30" as="geometry" />
        </mxCell>
        <mxCell id="tsa9X_baN0Ejox3Y71PL-17" style="edgeStyle=orthogonalEdgeStyle;rounded=0;orthogonalLoop=1;jettySize=auto;html=1;exitX=1;exitY=0.5;exitDx=0;exitDy=0;" parent="1" source="tsa9X_baN0Ejox3Y71PL-19" edge="1">
          <mxGeometry relative="1" as="geometry">
            <Array as="points">
              <mxPoint x="370" y="543" />
              <mxPoint x="370" y="160" />
            </Array>
            <mxPoint x="70" y="160" as="targetPoint" />
          </mxGeometry>
        </mxCell>
        <mxCell id="tsa9X_baN0Ejox3Y71PL-18" style="edgeStyle=orthogonalEdgeStyle;rounded=0;orthogonalLoop=1;jettySize=auto;html=1;exitX=0.5;exitY=1;exitDx=0;exitDy=0;entryX=0.5;entryY=0;entryDx=0;entryDy=0;" parent="1" source="tsa9X_baN0Ejox3Y71PL-19" target="tsa9X_baN0Ejox3Y71PL-23" edge="1">
          <mxGeometry relative="1" as="geometry" />
        </mxCell>
        <mxCell id="tsa9X_baN0Ejox3Y71PL-19" value="knopka=true" style="rhombus;whiteSpace=wrap;html=1;" parent="1" vertex="1">
          <mxGeometry x="20" y="518" width="100" height="50" as="geometry" />
        </mxCell>
        <mxCell id="tsa9X_baN0Ejox3Y71PL-20" value="нет" style="text;html=1;strokeColor=none;fillColor=none;align=center;verticalAlign=middle;whiteSpace=wrap;rounded=0;" parent="1" vertex="1">
          <mxGeometry x="90" y="518" width="60" height="30" as="geometry" />
        </mxCell>
        <mxCell id="tsa9X_baN0Ejox3Y71PL-21" value="да" style="text;html=1;strokeColor=none;fillColor=none;align=center;verticalAlign=middle;whiteSpace=wrap;rounded=0;" parent="1" vertex="1">
          <mxGeometry x="60" y="558" width="60" height="30" as="geometry" />
        </mxCell>
        <mxCell id="tsa9X_baN0Ejox3Y71PL-22" style="edgeStyle=orthogonalEdgeStyle;rounded=0;orthogonalLoop=1;jettySize=auto;html=1;exitX=0.5;exitY=1;exitDx=0;exitDy=0;entryX=0.5;entryY=0;entryDx=0;entryDy=0;" parent="1" source="tsa9X_baN0Ejox3Y71PL-23" target="tsa9X_baN0Ejox3Y71PL-24" edge="1">
          <mxGeometry relative="1" as="geometry" />
        </mxCell>
        <mxCell id="tsa9X_baN0Ejox3Y71PL-23" value="aannaia=x" style="rounded=0;whiteSpace=wrap;html=1;" parent="1" vertex="1">
          <mxGeometry x="20" y="588" width="100" height="50" as="geometry" />
        </mxCell>
        <mxCell id="tsa9X_baN0Ejox3Y71PL-24" value="конец" style="rounded=1;whiteSpace=wrap;html=1;arcSize=50;" parent="1" vertex="1">
          <mxGeometry x="20" y="658" width="100" height="50" as="geometry" />
        </mxCell>
        <mxCell id="tsa9X_baN0Ejox3Y71PL-25" style="edgeStyle=orthogonalEdgeStyle;rounded=0;orthogonalLoop=1;jettySize=auto;html=1;exitX=0.5;exitY=1;exitDx=0;exitDy=0;entryX=0.5;entryY=0;entryDx=0;entryDy=0;" parent="1" source="tsa9X_baN0Ejox3Y71PL-26" target="tsa9X_baN0Ejox3Y71PL-28" edge="1">
          <mxGeometry relative="1" as="geometry" />
        </mxCell>
        <mxCell id="tsa9X_baN0Ejox3Y71PL-26" value="начало&lt;br&gt;metod_pramoyg" style="rounded=1;whiteSpace=wrap;html=1;arcSize=50;" parent="1" vertex="1">
          <mxGeometry x="470" y="20" width="100" height="50" as="geometry" />
        </mxCell>
        <mxCell id="tsa9X_baN0Ejox3Y71PL-27" style="edgeStyle=orthogonalEdgeStyle;rounded=0;orthogonalLoop=1;jettySize=auto;html=1;exitX=0.5;exitY=1;exitDx=0;exitDy=0;entryX=0.5;entryY=0;entryDx=0;entryDy=0;" parent="1" source="tsa9X_baN0Ejox3Y71PL-28" target="tsa9X_baN0Ejox3Y71PL-31" edge="1">
          <mxGeometry relative="1" as="geometry" />
        </mxCell>
        <mxCell id="tsa9X_baN0Ejox3Y71PL-28" value="Ввод:&lt;br&gt;n" style="shape=parallelogram;perimeter=parallelogramPerimeter;whiteSpace=wrap;html=1;fixedSize=1;" parent="1" vertex="1">
          <mxGeometry x="470" y="90" width="100" height="50" as="geometry" />
        </mxCell>
        <mxCell id="tsa9X_baN0Ejox3Y71PL-29" style="edgeStyle=orthogonalEdgeStyle;rounded=0;orthogonalLoop=1;jettySize=auto;html=1;exitX=1;exitY=0.5;exitDx=0;exitDy=0;entryX=0.5;entryY=0;entryDx=0;entryDy=0;" parent="1" source="tsa9X_baN0Ejox3Y71PL-31" target="tsa9X_baN0Ejox3Y71PL-35" edge="1">
          <mxGeometry relative="1" as="geometry" />
        </mxCell>
        <mxCell id="tsa9X_baN0Ejox3Y71PL-30" style="edgeStyle=orthogonalEdgeStyle;rounded=0;orthogonalLoop=1;jettySize=auto;html=1;exitX=0.5;exitY=1;exitDx=0;exitDy=0;entryX=0.5;entryY=0;entryDx=0;entryDy=0;" parent="1" source="tsa9X_baN0Ejox3Y71PL-31" target="tsa9X_baN0Ejox3Y71PL-37" edge="1">
          <mxGeometry relative="1" as="geometry" />
        </mxCell>
        <mxCell id="tsa9X_baN0Ejox3Y71PL-31" value="n=0 или n&amp;lt;0" style="rhombus;whiteSpace=wrap;html=1;" parent="1" vertex="1">
          <mxGeometry x="470" y="160" width="100" height="50" as="geometry" />
        </mxCell>
        <mxCell id="tsa9X_baN0Ejox3Y71PL-32" value="да" style="text;html=1;strokeColor=none;fillColor=none;align=center;verticalAlign=middle;whiteSpace=wrap;rounded=0;" parent="1" vertex="1">
          <mxGeometry x="543" y="160" width="60" height="30" as="geometry" />
        </mxCell>
        <mxCell id="tsa9X_baN0Ejox3Y71PL-33" value="нет" style="text;html=1;strokeColor=none;fillColor=none;align=center;verticalAlign=middle;whiteSpace=wrap;rounded=0;" parent="1" vertex="1">
          <mxGeometry x="510" y="200" width="60" height="30" as="geometry" />
        </mxCell>
        <mxCell id="tsa9X_baN0Ejox3Y71PL-34" style="edgeStyle=orthogonalEdgeStyle;rounded=0;orthogonalLoop=1;jettySize=auto;html=1;exitX=0.5;exitY=1;exitDx=0;exitDy=0;" parent="1" source="tsa9X_baN0Ejox3Y71PL-35" edge="1">
          <mxGeometry relative="1" as="geometry">
            <mxPoint x="520" y="280" as="targetPoint" />
            <Array as="points">
              <mxPoint x="620" y="280" />
            </Array>
          </mxGeometry>
        </mxCell>
        <mxCell id="tsa9X_baN0Ejox3Y71PL-35" value="n=10" style="rounded=0;whiteSpace=wrap;html=1;" parent="1" vertex="1">
          <mxGeometry x="570" y="210" width="100" height="50" as="geometry" />
        </mxCell>
        <mxCell id="tsa9X_baN0Ejox3Y71PL-36" style="edgeStyle=orthogonalEdgeStyle;rounded=0;orthogonalLoop=1;jettySize=auto;html=1;exitX=0.5;exitY=1;exitDx=0;exitDy=0;entryX=0.5;entryY=0;entryDx=0;entryDy=0;" parent="1" source="tsa9X_baN0Ejox3Y71PL-37" target="tsa9X_baN0Ejox3Y71PL-40" edge="1">
          <mxGeometry relative="1" as="geometry" />
        </mxCell>
        <mxCell id="tsa9X_baN0Ejox3Y71PL-37" value="&lt;div&gt;dx=(b-a)/n&lt;/div&gt;&lt;div&gt;&lt;span style=&quot;background-color: initial;&quot;&gt;y=0&lt;/span&gt;&lt;/div&gt;&lt;div&gt;&lt;span style=&quot;background-color: initial;&quot;&gt;x=a&lt;/span&gt;&lt;/div&gt;" style="rounded=0;whiteSpace=wrap;html=1;" parent="1" vertex="1">
          <mxGeometry x="470" y="300" width="100" height="50" as="geometry" />
        </mxCell>
        <mxCell id="tsa9X_baN0Ejox3Y71PL-39" style="edgeStyle=orthogonalEdgeStyle;rounded=0;orthogonalLoop=1;jettySize=auto;html=1;exitX=1;exitY=0.5;exitDx=0;exitDy=0;entryX=0.5;entryY=0;entryDx=0;entryDy=0;" parent="1" source="tsa9X_baN0Ejox3Y71PL-40" target="tsa9X_baN0Ejox3Y71PL-46" edge="1">
          <mxGeometry relative="1" as="geometry" />
        </mxCell>
        <mxCell id="dIiQ5qKZ_fk2aZzQTIAT-6" value="" style="edgeStyle=orthogonalEdgeStyle;rounded=0;orthogonalLoop=1;jettySize=auto;html=1;" parent="1" source="tsa9X_baN0Ejox3Y71PL-40" target="dIiQ5qKZ_fk2aZzQTIAT-5" edge="1">
          <mxGeometry relative="1" as="geometry" />
        </mxCell>
        <mxCell id="tsa9X_baN0Ejox3Y71PL-40" value="x&amp;lt;b" style="rhombus;whiteSpace=wrap;html=1;" parent="1" vertex="1">
          <mxGeometry x="470" y="390" width="100" height="50" as="geometry" />
        </mxCell>
        <mxCell id="tsa9X_baN0Ejox3Y71PL-41" value="нет" style="text;html=1;strokeColor=none;fillColor=none;align=center;verticalAlign=middle;whiteSpace=wrap;rounded=0;" parent="1" vertex="1">
          <mxGeometry x="543" y="390" width="60" height="30" as="geometry" />
        </mxCell>
        <mxCell id="tsa9X_baN0Ejox3Y71PL-42" value="да" style="text;html=1;strokeColor=none;fillColor=none;align=center;verticalAlign=middle;whiteSpace=wrap;rounded=0;" parent="1" vertex="1">
          <mxGeometry x="510" y="428" width="60" height="30" as="geometry" />
        </mxCell>
        <mxCell id="qZgrm-c4pAmT3aAC73ab-1" style="edgeStyle=orthogonalEdgeStyle;rounded=0;orthogonalLoop=1;jettySize=auto;html=1;exitX=0.5;exitY=1;exitDx=0;exitDy=0;" edge="1" parent="1" source="tsa9X_baN0Ejox3Y71PL-44">
          <mxGeometry relative="1" as="geometry">
            <mxPoint x="520" y="370" as="targetPoint" />
            <Array as="points">
              <mxPoint x="520" y="598" />
              <mxPoint x="450" y="598" />
              <mxPoint x="450" y="370" />
            </Array>
          </mxGeometry>
        </mxCell>
        <mxCell id="tsa9X_baN0Ejox3Y71PL-44" value="&lt;div&gt;y=y+f(x)&lt;/div&gt;&lt;div&gt;&lt;span style=&quot;background-color: initial;&quot;&gt;x=x+dx&lt;/span&gt;&lt;/div&gt;" style="rounded=0;whiteSpace=wrap;html=1;" parent="1" vertex="1">
          <mxGeometry x="470" y="528" width="100" height="50" as="geometry" />
        </mxCell>
        <mxCell id="tsa9X_baN0Ejox3Y71PL-45" style="edgeStyle=orthogonalEdgeStyle;rounded=0;orthogonalLoop=1;jettySize=auto;html=1;exitX=0.5;exitY=1;exitDx=0;exitDy=0;entryX=0.5;entryY=0;entryDx=0;entryDy=0;" parent="1" source="tsa9X_baN0Ejox3Y71PL-46" target="tsa9X_baN0Ejox3Y71PL-48" edge="1">
          <mxGeometry relative="1" as="geometry" />
        </mxCell>
        <mxCell id="tsa9X_baN0Ejox3Y71PL-46" value="y=y*dx" style="rounded=0;whiteSpace=wrap;html=1;" parent="1" vertex="1">
          <mxGeometry x="590" y="528" width="100" height="50" as="geometry" />
        </mxCell>
        <mxCell id="tsa9X_baN0Ejox3Y71PL-47" style="edgeStyle=orthogonalEdgeStyle;rounded=0;orthogonalLoop=1;jettySize=auto;html=1;exitX=0.5;exitY=1;exitDx=0;exitDy=0;entryX=0.5;entryY=0;entryDx=0;entryDy=0;" parent="1" source="tsa9X_baN0Ejox3Y71PL-48" target="tsa9X_baN0Ejox3Y71PL-52" edge="1">
          <mxGeometry relative="1" as="geometry" />
        </mxCell>
        <mxCell id="tsa9X_baN0Ejox3Y71PL-48" value="Вывод:&lt;br&gt;y,(Fdop(b)-Fdop(a))-y" style="shape=parallelogram;perimeter=parallelogramPerimeter;whiteSpace=wrap;html=1;fixedSize=1;" parent="1" vertex="1">
          <mxGeometry x="590" y="598" width="100" height="50" as="geometry" />
        </mxCell>
        <mxCell id="tsa9X_baN0Ejox3Y71PL-49" value="" style="endArrow=none;dashed=1;html=1;rounded=0;exitX=1;exitY=0.5;exitDx=0;exitDy=0;" parent="1" source="tsa9X_baN0Ejox3Y71PL-48" edge="1">
          <mxGeometry width="50" height="50" relative="1" as="geometry">
            <mxPoint x="740" y="658" as="sourcePoint" />
            <mxPoint x="720" y="623" as="targetPoint" />
          </mxGeometry>
        </mxCell>
        <mxCell id="tsa9X_baN0Ejox3Y71PL-50" value="" style="strokeWidth=2;html=1;shape=mxgraph.flowchart.annotation_1;align=left;pointerEvents=1;" parent="1" vertex="1">
          <mxGeometry x="720" y="608" width="10" height="30" as="geometry" />
        </mxCell>
        <mxCell id="tsa9X_baN0Ejox3Y71PL-51" value="Fdop - функция" style="text;html=1;strokeColor=none;fillColor=none;align=center;verticalAlign=middle;whiteSpace=wrap;rounded=0;" parent="1" vertex="1">
          <mxGeometry x="722" y="605" width="90" height="30" as="geometry" />
        </mxCell>
        <mxCell id="tsa9X_baN0Ejox3Y71PL-52" value="конец" style="rounded=1;whiteSpace=wrap;html=1;arcSize=50;" parent="1" vertex="1">
          <mxGeometry x="470" y="688" width="100" height="50" as="geometry" />
        </mxCell>
        <mxCell id="dIiQ5qKZ_fk2aZzQTIAT-4" style="edgeStyle=orthogonalEdgeStyle;rounded=0;orthogonalLoop=1;jettySize=auto;html=1;exitX=0.5;exitY=1;exitDx=0;exitDy=0;entryX=0.5;entryY=0;entryDx=0;entryDy=0;" parent="1" source="dIiQ5qKZ_fk2aZzQTIAT-1" target="tsa9X_baN0Ejox3Y71PL-9" edge="1">
          <mxGeometry relative="1" as="geometry" />
        </mxCell>
        <mxCell id="dIiQ5qKZ_fk2aZzQTIAT-1" value="function f" style="shape=process;whiteSpace=wrap;html=1;backgroundOutline=1;" parent="1" vertex="1">
          <mxGeometry x="20" y="250" width="100" height="50" as="geometry" />
        </mxCell>
        <mxCell id="dIiQ5qKZ_fk2aZzQTIAT-7" style="edgeStyle=orthogonalEdgeStyle;rounded=0;orthogonalLoop=1;jettySize=auto;html=1;exitX=0.5;exitY=1;exitDx=0;exitDy=0;entryX=0.5;entryY=0;entryDx=0;entryDy=0;" parent="1" source="dIiQ5qKZ_fk2aZzQTIAT-5" target="tsa9X_baN0Ejox3Y71PL-44" edge="1">
          <mxGeometry relative="1" as="geometry" />
        </mxCell>
        <mxCell id="dIiQ5qKZ_fk2aZzQTIAT-5" value="function f" style="shape=process;whiteSpace=wrap;html=1;backgroundOutline=1;" parent="1" vertex="1">
          <mxGeometry x="470" y="460" width="100" height="50" as="geometry" />
        </mxCell>
      </root>
    </mxGraphModel>
  </diagram>
</mxfile>
